<svg width="173" height="173" viewBox="0 0 173 173" fill="none" xmlns="http://www.w3.org/2000/svg">
<path d="M36.3782 6.25015L86.5583 56.4319C103.284 39.7118 120.015 22.9756 136.744 6.25015C156.096 -13.1014 186.093 16.9056 166.757 36.2626C150.026 52.9772 133.289 69.7161 116.577 86.4416C133.297 103.175 150.023 119.901 166.757 136.621C186.093 155.967 156.093 185.966 136.744 166.633C120.018 149.902 103.287 133.169 86.561 116.449L36.3809 166.633C17.0289 185.979 -12.9761 155.969 6.36777 136.621C23.099 119.89 39.8248 103.164 56.5614 86.4362C39.8275 69.7053 23.1017 52.9745 6.36777 36.2464C-12.9788 16.9056 17.0262 -13.1014 36.3809 6.26095" fill="#EC1C24"/>
</svg>
