<svg width="56" height="42" viewBox="0 0 56 42" fill="none" xmlns="http://www.w3.org/2000/svg">
<g clip-path="url(#clip0_463_1991)">
<path d="M12.7273 41.7933V20.2688L6.01716 14.1618L0 10.7729V37.9948C0 40.0965 1.71172 41.7933 3.81828 41.7933H12.7273Z" fill="#4285F4"/>
<path d="M43.2734 41.7933H52.1825C54.2954 41.7933 56.0008 40.0902 56.0008 37.9948V10.7731L49.1854 14.6548L43.2734 20.2688V41.7933Z" fill="#34A853"/>
<path d="M12.7275 20.2688L11.8145 11.8586L12.7275 3.80914L28.0002 15.2044L43.2729 3.80914L44.2942 11.424L43.2729 20.2688L28.0002 31.6641L12.7275 20.2688Z" fill="#EA4335"/>
<path d="M43.2734 3.80915V20.2688L56.0008 10.7729V5.70829C56.0008 1.01104 50.6108 -1.66673 46.8373 1.15032L43.2734 3.80915Z" fill="#FBBC04"/>
<path d="M0 10.7728L5.85353 15.1404L12.7273 20.2687V3.80907L9.16344 1.15023C5.38344 -1.66703 0 1.01096 0 5.70799V10.7726V10.7728Z" fill="#C5221F"/>
</g>
<defs>
<clipPath id="clip0_463_1991">
<rect width="56" height="42" fill="white"/>
</clipPath>
</defs>
</svg>
