<svg width="48" height="42" viewBox="0 0 48 42" fill="none" xmlns="http://www.w3.org/2000/svg">
<path d="M44.0736 0.00313175H3.51246C1.59545 -0.0159569 0.023396 1.33898 0 3.03047V38.9689C0.0225949 40.6612 1.59453 42.0175 3.51246 41.9998H44.0736C45.9953 42.0208 47.5734 40.6646 47.6 38.9689V3.02788C47.5726 1.33304 45.9944 -0.021814 44.0736 0.000266089" fill="#0A66C2"/>
<path d="M33.504 35.7866H40.5569L40.5598 24.7922C40.5598 19.3949 39.2418 15.2461 32.0935 15.2461C29.3607 15.1566 26.7937 16.4006 25.4131 18.4834H25.3183V15.7446H18.5476V35.7859H25.6005V25.8716C25.6005 23.2572 26.1625 20.7251 29.8358 20.7251C33.457 20.7251 33.504 23.7168 33.504 26.0408V35.7866Z" fill="white"/>
<path d="M6.49609 9.39429C6.4965 11.3888 8.32926 13.0054 10.5897 13.0051C11.6752 13.0049 12.7161 12.6242 13.4835 11.9468C14.251 11.2694 14.682 10.3508 14.6818 9.39299C14.6814 7.39846 12.8486 5.78187 10.5882 5.78223C8.32779 5.78258 6.49569 7.39976 6.49609 9.39429Z" fill="white"/>
<path d="M7.05591 35.7866H14.1161V15.7446H7.05591V35.7866Z" fill="white"/>
</svg>
