<svg width="49" height="49" viewBox="0 0 49 49" fill="none" xmlns="http://www.w3.org/2000/svg">
<path d="M10.1406 24.5L24.5027 10.1379L38.8648 24.5L24.5027 38.8621L10.1406 24.5Z" fill="#C2A090"/>
<path d="M47.9319 21.9223L27.0794 1.06636C26.3954 0.383516 25.4683 0 24.5017 0C23.5352 0 22.6081 0.383516 21.9241 1.06636L1.06636 21.9223C0.383516 22.6064 0 23.5334 0 24.5C0 25.4666 0.383516 26.3936 1.06636 27.0777L21.9223 47.9336C22.6064 48.6165 23.5334 49 24.5 49C25.4666 49 26.3936 48.6165 27.0777 47.9336L47.9336 27.0777C48.6165 26.3936 49 25.4666 49 24.5C49 23.5334 48.6165 22.6064 47.9336 21.9223H47.9319ZM24.5 45.5624L3.4393 24.5L24.5 3.43755L45.5624 24.5L24.5 45.5624Z" fill="#C2A090"/>
</svg>
