<svg width="208" height="208" viewBox="0 0 208 208" fill="none" xmlns="http://www.w3.org/2000/svg">
<path d="M84.1543 97.8467C82.5223 96.2147 80.3089 95.2979 78.001 95.2979C75.693 95.2979 73.4796 96.2147 71.8476 97.8467C70.2157 99.4786 69.2988 101.692 69.2988 104C69.2988 106.308 70.2157 108.521 71.8476 110.153L97.8476 136.153C98.6574 136.957 99.6178 137.592 100.674 138.023C101.73 138.455 102.86 138.673 104.001 138.667C105.187 138.629 106.353 138.348 107.427 137.841C108.5 137.334 109.458 136.612 110.241 135.72L170.908 66.3867C172.308 64.6475 172.984 62.4348 172.793 60.2098C172.602 57.9848 171.56 55.9194 169.883 54.4441C168.207 52.9688 166.026 52.1976 163.795 52.2912C161.563 52.3849 159.455 53.3361 157.908 54.9467L104.001 117.347L84.1543 97.8467Z" fill="#5CD961"/>
<path d="M182 95.3333C179.701 95.3333 177.497 96.2464 175.871 97.8718C174.246 99.4971 173.333 101.701 173.333 104C173.333 122.388 166.028 140.024 153.026 153.026C140.023 166.029 122.388 173.333 104 173.333C90.3071 173.327 76.923 169.267 65.535 161.664C54.1469 154.061 45.265 143.257 40.0092 130.613C34.7533 117.97 33.3589 104.053 36.0018 90.6177C38.6446 77.1826 45.2064 64.8309 54.8597 55.12C61.2791 48.6147 68.9316 43.455 77.3693 39.9431C85.8069 36.4311 94.8603 34.6373 104 34.6667C109.542 34.7014 115.063 35.3407 120.466 36.5733C121.597 36.9231 122.787 37.0375 123.964 36.9096C125.141 36.7817 126.279 36.4141 127.308 35.8296C128.337 35.245 129.235 34.4558 129.948 33.5107C130.66 32.5656 131.172 31.4846 131.45 30.3343C131.729 29.184 131.769 27.9889 131.568 26.8225C131.367 25.6561 130.93 24.5432 130.282 23.5525C129.635 22.5617 128.791 21.7141 127.803 21.0618C126.816 20.4096 125.705 19.9665 124.54 19.76C117.807 18.1761 110.916 17.362 104 17.3333C86.8773 17.4223 70.1649 22.5812 55.9716 32.159C41.7783 41.7368 30.7401 55.3043 24.25 71.1493C17.76 86.9943 16.1089 104.407 19.5052 121.189C22.9014 137.972 31.1928 153.372 43.333 165.447C59.4243 181.545 81.238 190.614 104 190.667C126.985 190.667 149.029 181.536 165.282 165.283C181.535 149.029 190.666 126.985 190.666 104C190.666 101.701 189.753 99.4971 188.128 97.8718C186.503 96.2464 184.298 95.3333 182 95.3333Z" fill="#5CD961"/>
</svg>
